999
Inkscape export via OpenSCAD DXF Export
  0
SECTION
  2
HEADER
  9
$ACADVER
  1
AC1014
  9
$HANDSEED
  5
FFFF
  9
$MEASUREMENT
 70
     1
  0
ENDSEC
  0
SECTION
  2
TABLES
  0
TABLE
  2
VPORT
  5
8
330
0
100
AcDbSymbolTable
 70
     4
  0
VPORT
  5
2E
330
8
100
AcDbSymbolTableRecord
100
AcDbViewportTableRecord
  2
*ACTIVE
 70
     0
 10
0.0
 20
0.0
 11
1.0
 21
1.0
 12
210.0
 22
148.5
 13
0.0
 23
0.0
 14
10.0
 24
10.0
 15
10.0
 25
10.0
 16
0.0
 26
0.0
 36
1.0
 17
0.0
 27
0.0
 37
0.0
 40
341.0
 41
1.24
 42
50.0
 43
0.0
 44
0.0
 50
0.0
 51
0.0
 71
     0
 72
   100
 73
     1
 74
     3
 75
     0
 76
     0
 77
     0
 78
     0
  0
ENDTAB
  0
TABLE
  2
LTYPE
  5
5
330
0
100
AcDbSymbolTable
 70
     1
  0
LTYPE
  5
14
330
5
100
AcDbSymbolTableRecord
100
AcDbLinetypeTableRecord
  2
BYBLOCK
 70
     0
  3

 72
    65
 73
     0
 40
0.0
  0
LTYPE
  5
15
330
5
100
AcDbSymbolTableRecord
100
AcDbLinetypeTableRecord
  2
BYLAYER
 70
     0
  3

 72
    65
 73
     0
 40
0.0
  0
LTYPE
  5
16
330
5
100
AcDbSymbolTableRecord
100
AcDbLinetypeTableRecord
  2
CONTINUOUS
 70
     0
  3
Solid line
 72
    65
 73
     0
 40
0.0
  0
ENDTAB
  0
TABLE
0
TABLE
2
LAYER
5
2
330
0
100
AcDbSymbolTable
70
1
0
LAYER
5
10
330
2
100
AcDbSymbolTableRecord
100
AcDbLayerTableRecord
2
base
70
0
62
7
6
CONTINUOUS
0
ENDTAB
0
ENDSEC
  0
ENDTAB
  0
TABLE
  2
STYLE
  5
3
330
0
100
AcDbSymbolTable
 70
     1
  0
STYLE
  5
11
330
3
100
AcDbSymbolTableRecord
100
AcDbTextStyleTableRecord
  2
STANDARD
 70
     0
 40
0.0
 41
1.0
 50
0.0
 71
     0
 42
2.5
  3
txt
  4

  0
ENDTAB
  0
TABLE
  2
VIEW
  5
6
330
0
100
AcDbSymbolTable
 70
     0
  0
ENDTAB
  0
TABLE
  2
UCS
  5
7
330
0
100
AcDbSymbolTable
 70
     0
  0
ENDTAB
  0
TABLE
  2
APPID
  5
9
330
0
100
AcDbSymbolTable
 70
     2
  0
APPID
  5
12
330
9
100
AcDbSymbolTableRecord
100
AcDbRegAppTableRecord
  2
ACAD
 70
     0
  0
ENDTAB
  0
TABLE
  2
DIMSTYLE
  5
A
330
0
100
AcDbSymbolTable
 70
     1
  0
DIMSTYLE
105
27
330
A
100
AcDbSymbolTableRecord
100
AcDbDimStyleTableRecord
  2
ISO-25
 70
     0
  3

  4

  5

  6

  7

 40
1.0
 41
2.5
 42
0.625
 43
3.75
 44
1.25
 45
0.0
 46
0.0
 47
0.0
 48
0.0
140
2.5
141
2.5
142
0.0
143
0.03937007874016
144
1.0
145
0.0
146
1.0
147
0.625
 71
     0
 72
     0
 73
     0
 74
     0
 75
     0
 76
     0
 77
     1
 78
     8
170
     0
171
     3
172
     1
173
     0
174
     0
175
     0
176
     0
177
     0
178
     0
270
     2
271
     2
272
     2
273
     2
274
     3
340
11
275
     0
280
     0
281
     0
282
     0
283
     0
284
     8
285
     0
286
     0
287
     3
288
     0
  0
ENDTAB
  0
TABLE
  2
BLOCK_RECORD
  5
1
330
0
100
AcDbSymbolTable
 70
     1
  0
BLOCK_RECORD
  5
1F
330
1
100
AcDbSymbolTableRecord
100
AcDbBlockTableRecord
  2
*MODEL_SPACE
  0
BLOCK_RECORD
  5
1B
330
1
100
AcDbSymbolTableRecord
100
AcDbBlockTableRecord
  2
*PAPER_SPACE
  0
ENDTAB
  0
ENDSEC
  0
SECTION
  2
BLOCKS
  0
BLOCK
  5
20
330
1F
100
AcDbEntity
  8
0
100
AcDbBlockBegin
  2
*MODEL_SPACE
 70
     0
 10
0.0
 20
0.0
 30
0.0
  3
*MODEL_SPACE
  1

  0
ENDBLK
  5
21
330
1F
100
AcDbEntity
  8
0
100
AcDbBlockEnd
  0
BLOCK
  5
1C
330
1B
100
AcDbEntity
 67
     1
  8
0
100
AcDbBlockBegin
  2
*PAPER_SPACE
  1

  0
ENDBLK
  5
1D
330
1B
100
AcDbEntity
 67
     1
  8
0
100
AcDbBlockEnd
  0
ENDSEC
  0
SECTION
  2
ENTITIES
0
DIMENSION
5
83
100
AcDbEntity
62
256
370
-1
6
ByLayer
1
total_width
3
Standard
70
0
71
5
72
1
41
1.0
100
AcDbAlignedDimension
13
0.000000
23
0.000000
33
0.0
14
40.160442
24
0.000000
34
0.0
50
0.000000
100
AcDbRotatedDimension
0
DIMENSION
5
83
100
AcDbEntity
62
256
370
-1
6
ByLayer
1
total_minx
3
Standard
70
0
71
5
72
1
41
1.0
100
AcDbAlignedDimension
13
0.000000
23
0.000000
33
0.0
14
0.000000
24
0.000000
34
0.0
50
0.000000
100
AcDbRotatedDimension
0
DIMENSION
5
83
100
AcDbEntity
62
256
370
-1
6
ByLayer
1
total_maxx
3
Standard
70
0
71
5
72
1
41
1.0
100
AcDbAlignedDimension
13
0.000000
23
0.000000
33
0.0
14
40.160442
24
0.000000
34
0.0
50
0.000000
100
AcDbRotatedDimension
0
DIMENSION
5
83
100
AcDbEntity
62
256
370
-1
6
ByLayer
1
total_height
3
Standard
70
0
71
5
72
1
41
1.0
100
AcDbAlignedDimension
13
0.000000
23
-222.000004
33
0.0
14
0.000000
24
-146.999999
34
0.0
50
90.000000
100
AcDbRotatedDimension
0
DIMENSION
5
83
100
AcDbEntity
62
256
370
-1
6
ByLayer
1
total_miny
3
Standard
70
0
71
5
72
1
41
1.0
100
AcDbAlignedDimension
13
-222.000004
23
0.000000
33
0.0
14
0.000000
24
0.000000
34
0.0
50
0.000000
100
AcDbRotatedDimension
0
DIMENSION
5
83
100
AcDbEntity
62
256
370
-1
6
ByLayer
1
total_maxy
3
Standard
70
0
71
5
72
1
41
1.0
100
AcDbAlignedDimension
13
0.000000
23
0.000000
33
0.0
14
-146.999999
24
0.000000
34
0.0
50
0.000000
100
AcDbRotatedDimension
0
DIMENSION
8
base
5
83
100
AcDbEntity
62
256
370
-1
6
ByLayer
1
base_width
3
Standard
70
0
71
5
72
1
41
1.0
100
AcDbAlignedDimension
13
0.000000
23
0.000000
33
0.0
14
40.160442
24
0.000000
34
0.0
50
0.000000
100
AcDbRotatedDimension
0
DIMENSION
8
base
5
83
100
AcDbEntity
62
256
370
-1
6
ByLayer
1
base_minx
3
Standard
70
0
71
5
72
1
41
1.0
100
AcDbAlignedDimension
13
0.000000
23
0.000000
33
0.0
14
0.000000
24
0.000000
34
0.0
50
0.000000
100
AcDbRotatedDimension
0
DIMENSION
8
base
5
83
100
AcDbEntity
62
256
370
-1
6
ByLayer
1
base_maxx
3
Standard
70
0
71
5
72
1
41
1.0
100
AcDbAlignedDimension
13
0.000000
23
0.000000
33
0.0
14
40.160442
24
0.000000
34
0.0
50
0.000000
100
AcDbRotatedDimension
0
DIMENSION
8
base
5
83
100
AcDbEntity
62
256
370
-1
6
ByLayer
1
base_height
3
Standard
70
0
71
5
72
1
41
1.0
100
AcDbAlignedDimension
13
0.000000
23
-222.000004
33
0.0
14
0.000000
24
-146.999999
34
0.0
50
90.000000
100
AcDbRotatedDimension
0
DIMENSION
8
base
5
83
100
AcDbEntity
62
256
370
-1
6
ByLayer
1
base_miny
3
Standard
70
0
71
5
72
1
41
1.0
100
AcDbAlignedDimension
13
-222.000004
23
0.000000
33
0.0
14
0.000000
24
0.000000
34
0.0
50
0.000000
100
AcDbRotatedDimension
0
DIMENSION
8
base
5
83
100
AcDbEntity
62
256
370
-1
6
ByLayer
1
base_maxy
3
Standard
70
0
71
5
72
1
41
1.0
100
AcDbAlignedDimension
13
0.000000
23
0.000000
33
0.0
14
-146.999999
24
0.000000
34
0.0
50
0.000000
100
AcDbRotatedDimension
62
0
0
LWPOLYLINE
100
AcDbPolyline
8
base
90
43
70
0
10
0.000000
20
-146.999999
30
0.0
10
0.000000
20
-156.549804
30
0.0
10
0.000000
20
-214.150146
30
0.0
10
0.000000
20
-222.000004
30
0.0
10
40.160442
20
-222.000004
30
0.0
10
40.160442
20
-214.150146
30
0.0
10
40.000039
20
-214.150146
30
0.0
10
40.000039
20
-207.183338
30
0.0
10
33.602634
20
-210.877031
30
0.0
10
33.602634
20
-214.150146
30
0.0
10
20.265981
20
-214.150146
30
0.0
10
20.265981
20
-211.178546
30
0.0
10
13.102387
20
-207.042227
30
0.0
10
7.168555
20
-210.467479
30
0.0
10
7.168555
20
-214.300076
30
0.0
10
6.168650
20
-214.300076
30
0.0
10
6.168650
20
-210.121313
30
0.0
10
0.300412
20
-206.733546
30
0.0
10
0.300412
20
-199.033618
30
0.0
10
6.168650
20
-195.645297
30
0.0
10
6.168650
20
-187.089886
30
0.0
10
0.149931
20
-183.615025
30
0.0
10
0.149931
20
-175.915099
30
0.0
10
6.168650
20
-172.440789
30
0.0
10
6.168650
20
-163.821436
30
0.0
10
0.149931
20
-160.347126
30
0.0
10
0.149931
20
-156.549804
30
0.0
10
13.487135
20
-156.549804
30
0.0
10
13.487135
20
-159.910012
30
0.0
10
20.727348
20
-164.089878
30
0.0
10
26.173355
20
-160.945194
30
0.0
10
26.173355
20
-156.550355
30
0.0
10
27.173811
20
-156.550355
30
0.0
10
27.173811
20
-160.644231
30
0.0
10
32.880543
20
-163.939396
30
0.0
10
39.760260
20
-159.967339
30
0.0
10
40.000039
20
-159.828983
30
0.0
10
40.000039
20
-156.549804
30
0.0
10
40.010512
20
-156.549804
30
0.0
10
40.010512
20
-146.999999
30
0.0
10
40.000039
20
-146.999999
30
0.0
10
0.000000
20
-146.999999
30
0.0
10
0.000000
20
-146.999999
30
0.0
62
0
0
LWPOLYLINE
100
AcDbPolyline
8
base
90
8
70
0
10
12.865916
20
-160.705967
30
0.0
10
7.168555
20
-163.994517
30
0.0
10
7.168555
20
-172.267707
30
0.0
10
12.812448
20
-175.525390
30
0.0
10
20.265981
20
-171.222603
30
0.0
10
20.265981
20
-164.978437
30
0.0
10
12.865916
20
-160.705967
30
0.0
10
12.865916
20
-160.705967
30
0.0
62
0
0
LWPOLYLINE
100
AcDbPolyline
8
base
90
6
70
0
10
40.000039
20
-160.983779
30
0.0
10
33.602634
20
-164.676922
30
0.0
10
33.602634
20
-171.523567
30
0.0
10
40.000039
20
-175.217260
30
0.0
10
40.000039
20
-160.983779
30
0.0
10
40.000039
20
-160.983779
30
0.0
62
0
0
LWPOLYLINE
100
AcDbPolyline
8
base
90
8
70
0
10
20.543793
20
-172.216444
30
0.0
10
13.487135
20
-176.290478
30
0.0
10
13.487135
20
-183.009791
30
0.0
10
20.817747
20
-187.242021
30
0.0
10
26.173355
20
-184.150256
30
0.0
10
26.173355
20
-175.466962
30
0.0
10
20.543793
20
-172.216444
30
0.0
10
20.543793
20
-172.216444
30
0.0
62
0
0
LWPOLYLINE
100
AcDbPolyline
8
base
90
10
70
0
10
33.064097
20
-172.366926
30
0.0
10
27.173811
20
-175.767923
30
0.0
10
27.173811
20
-183.676211
30
0.0
10
32.940075
20
-187.004449
30
0.0
10
39.760260
20
-183.067119
30
0.0
10
40.000039
20
-182.928762
30
0.0
10
40.000039
20
-175.818086
30
0.0
10
39.760260
20
-176.233150
30
0.0
10
33.064097
20
-172.366926
30
0.0
10
33.064097
20
-172.366926
30
0.0
62
0
0
LWPOLYLINE
100
AcDbPolyline
8
base
90
8
70
0
10
13.011437
20
-183.889531
30
0.0
10
7.168555
20
-187.262967
30
0.0
10
7.168555
20
-195.299135
30
0.0
10
12.871428
20
-198.591545
30
0.0
10
20.415912
20
-194.235840
30
0.0
10
20.415912
20
-188.164757
30
0.0
10
13.011437
20
-183.889531
30
0.0
10
13.011437
20
-183.889531
30
0.0
62
0
0
LWPOLYLINE
100
AcDbPolyline
8
base
90
6
70
0
10
40.000039
20
-184.083559
30
0.0
10
33.753117
20
-187.690158
30
0.0
10
33.753117
20
-194.709886
30
0.0
10
40.000039
20
-198.316488
30
0.0
10
40.000039
20
-184.083559
30
0.0
10
40.000039
20
-184.083559
30
0.0
62
0
0
LWPOLYLINE
100
AcDbPolyline
8
base
90
8
70
0
10
20.602773
20
-195.282599
30
0.0
10
13.637066
20
-199.304266
30
0.0
10
13.637066
20
-206.196110
30
0.0
10
20.758768
20
-210.308175
30
0.0
10
26.173355
20
-207.181684
30
0.0
10
26.173355
20
-198.498389
30
0.0
10
20.602773
20
-195.282599
30
0.0
10
20.602773
20
-195.282599
30
0.0
62
0
0
LWPOLYLINE
100
AcDbPolyline
8
base
90
9
70
0
10
33.155049
20
-195.519621
30
0.0
10
27.173811
20
-198.972435
30
0.0
10
27.173811
20
-206.880719
30
0.0
10
32.849123
20
-210.157144
30
0.0
10
40.000039
20
-206.028541
30
0.0
10
40.000039
20
-199.471836
30
0.0
10
39.760260
20
-199.333479
30
0.0
10
33.155049
20
-195.519621
30
0.0
10
33.155049
20
-195.519621
30
0.0
  0
ENDSEC
  0
SECTION
  2
OBJECTS
  0
DICTIONARY
  5
C
330
0
100
AcDbDictionary
  3
ACAD_GROUP
350
D
  3
ACAD_MLINESTYLE
350
17
  0
DICTIONARY
  5
D
330
C
100
AcDbDictionary
  0
DICTIONARY
  5
1A
330
C
100
AcDbDictionary
  0
DICTIONARY
  5
17
330
C
100
AcDbDictionary
  3
STANDARD
350
18
  0
DICTIONARY
  5
19
330
C
100
AcDbDictionary
  0
ENDSEC
  0
EOF
